<svg xmlns="http://www.w3.org/2000/svg" xmlns:xlink="http://www.w3.org/1999/xlink" width="500" zoomAndPan="magnify" viewBox="0 0 375 374.999991" height="500" preserveAspectRatio="xMidYMid meet" version="1.2"><defs><clipPath id="576c2d6b64"><path d="M 131.625 112.5 L 243.375 112.5 L 243.375 262.5 L 131.625 262.5 Z M 131.625 112.5 "/></clipPath></defs><g id="113cfcb77b"><g clip-rule="nonzero" clip-path="url(#576c2d6b64)"><path style=" stroke:none;fill-rule:nonzero;fill:#ffffff;fill-opacity:1;" d="M 201.65625 190.867188 L 131.625 169.316406 L 131.625 112.507812 L 201.65625 134.054688 L 201.65625 155.964844 L 152.375 140.855469 L 152.375 153.847656 L 201.65625 168.957031 Z M 222.632812 118.945312 L 222.632812 235.839844 L 207.09375 240.589844 L 152.375 223.792969 L 152.375 210.796875 L 201.65625 225.90625 L 201.65625 204 L 131.625 182.453125 L 131.625 239.261719 L 207.089844 262.5 L 243.382812 251.308594 L 243.382812 112.507812 Z M 222.632812 118.945312 "/><path style=" stroke:none;fill-rule:nonzero;fill:#ffffff;fill-opacity:1;" d="M 201.65625 190.867188 L 131.625 169.316406 L 131.625 112.507812 L 201.65625 134.054688 L 201.65625 155.964844 L 152.375 140.855469 L 152.375 153.847656 L 201.65625 168.957031 Z M 222.632812 118.945312 L 222.632812 235.839844 L 207.09375 240.589844 L 152.375 223.792969 L 152.375 210.796875 L 201.65625 225.90625 L 201.65625 204 L 131.625 182.453125 L 131.625 239.261719 L 207.089844 262.5 L 243.382812 251.308594 L 243.382812 112.507812 Z M 222.632812 118.945312 "/></g></g></svg>